<?xml version="1.0" encoding="UTF-8"?>
<!-- Generator: Adobe Illustrator 25.2.0, SVG Export Plug-In . SVG Version: 6.00 Build 0)  -->
<svg xmlns="http://www.w3.org/2000/svg" xmlns:xlink="http://www.w3.org/1999/xlink" version="1.1" id="Capa_1" x="0px" y="0px" viewBox="0 0 511.578 511.578" style="enable-background:new 0 0 511.578 511.578;" xml:space="preserve" width="512" height="512">
<g>
	<path style="fill:#43918F;" d="M55.338,366.654c0,0,20.695-164.338,45.344-143.971s51.669,152.864,35.162,160.793   S73.339,403.098,55.338,366.654z"/>
	<path style="fill:#43918F;" d="M483.993,359.953c0,0-30.928-146.264-55.635-125.968s-35.346,136.015-18.863,143.992   C425.978,385.953,465.886,396.343,483.993,359.953z"/>
	<path style="fill:#C27B9A;" d="M95.887,220.935l346.501,0.752c0,0-15.449,135.221-148.742,147.678   C96.763,387.764,95.887,220.935,95.887,220.935z"/>
	<path style="fill:#241726;" d="M410.516,79.514l-7.242-6.834c-0.263-0.253-0.627-0.359-0.99-0.317   c-0.228,0.03-5.571,0.824-8.247,4.898c-1.565,2.382-1.878,5.337-0.929,8.777c0.719,2.605,1.167,4.639,1.357,6.227   c-3.32-0.345-12.597-0.778-17.165,4.426c-2.746,3.128-3.267,7.646-1.547,13.426c0.129,0.432,0.488,0.756,0.929,0.838l8.927,1.687   c0.075,0.014,0.148,0.021,0.223,0.021c0.418,0,0.812-0.221,1.033-0.589c0.258-0.434,0.216-0.986-0.106-1.375   c-0.021-0.028-2.138-2.657-1.605-5.489c0.315-1.672,1.52-3.145,3.564-4.389c0.839,0.202,2.592,0.552,4.669,0.552   c3.764,0,6.829-1.171,8.864-3.391c2.058-2.248,2.143-4.975,2.225-7.611c0.117-3.689,0.216-6.874,5.63-8.855   c0.392-0.143,0.681-0.479,0.765-0.887C410.952,80.22,410.818,79.798,410.516,79.514z M388.408,98.335   c-0.002,0-0.004,0.002-0.007,0.002c-0.039,0.004-0.074,0.024-0.112,0.031c-0.112,0.023-0.22,0.053-0.319,0.104   c-0.01,0.005-0.022,0.005-0.032,0.01c-2.952,1.662-4.687,3.783-5.151,6.304c-0.352,1.903,0.101,3.67,0.678,5.003l-5.609-1.058   c-1.232-4.59-0.814-8.106,1.246-10.453c3.924-4.476,12.767-3.884,15.417-3.589c-0.079,0.696-0.259,1.242-0.545,1.66   C393.241,97.422,391.574,98.016,388.408,98.335z M402.074,90.295c-0.075,2.398-0.141,4.471-1.596,6.062   c-1.34,1.462-3.246,2.316-5.677,2.549c0.444-0.333,0.835-0.727,1.157-1.197c1.708-2.495,1.098-6.402-0.533-12.309   c-0.756-2.739-0.552-5.029,0.612-6.808c1.636-2.502,4.776-3.45,6.036-3.741l5.466,5.156   C402.314,82.651,402.182,86.857,402.074,90.295z"/>
	<path style="fill:#241726;" d="M201.879,40.3c-0.777,0-1.603,0.073-2.452,0.214c-2.714,0.451-4.766,0.69-6.337,0.719   c0.688-3.248,2.101-12.46-2.605-17.556c-2.826-3.058-7.263-4.041-13.194-2.938c-0.444,0.082-0.8,0.404-0.929,0.835l-2.607,8.704   c-0.146,0.483,0.028,1.007,0.434,1.307c0.404,0.3,0.958,0.314,1.378,0.04c0.028-0.016,2.872-1.838,5.625-1.026   c1.628,0.487,2.966,1.84,3.99,4.002c-0.699,1.963-2.782,9.015,1.417,13.755c2.021,2.283,4.722,2.654,7.334,3.011   c3.656,0.5,6.813,0.932,8.219,6.522c0.103,0.404,0.406,0.725,0.803,0.852c0.12,0.038,0.242,0.056,0.364,0.056   c0.284,0,0.563-0.101,0.784-0.291l7.552-6.489c0.277-0.237,0.429-0.587,0.418-0.953C211.94,47.343,209.644,40.3,201.879,40.3z    M181.858,28.291c-1.854-0.544-3.659-0.282-5.046,0.155l1.638-5.471c4.682-0.749,8.144,0.033,10.265,2.33   c4.057,4.388,2.516,13.171,1.954,15.737c-0.772-0.176-1.33-0.471-1.743-0.886c-0.882-0.885-1.253-2.56-1.239-5.602   c0-0.003-0.001-0.005-0.001-0.007c0-0.025-0.011-0.05-0.013-0.076c-0.009-0.127-0.031-0.25-0.077-0.364   c-0.004-0.011-0.002-0.023-0.007-0.034C186.242,30.964,184.315,29.019,181.858,28.291z M203.918,55.496   c-2.084-5.475-6.252-6.043-9.66-6.51c-2.377-0.324-4.431-0.606-5.862-2.22c-1.502-1.697-1.948-3.872-1.936-5.888   c0.218,0.361,0.474,0.685,0.763,0.976c1.202,1.206,2.99,1.77,5.63,1.77c1.725,0,3.94-0.235,6.968-0.739   c0.721-0.12,1.413-0.181,2.058-0.181c6.341,0,7.526,5.994,7.745,7.892L203.918,55.496z"/>
	<path style="fill:#241726;" d="M411.755,472.871c-0.777,0-1.603,0.073-2.452,0.214c-2.715,0.453-4.766,0.691-6.337,0.721   c0.688-3.247,2.102-12.461-2.604-17.558c-2.826-3.06-7.263-4.048-13.192-2.938c-0.441,0.082-0.8,0.404-0.929,0.835l-2.61,8.704   c-0.146,0.486,0.028,1.009,0.434,1.312c0.411,0.298,0.962,0.312,1.382,0.033c0.028-0.016,2.821-1.847,5.607-1.028   c1.635,0.485,2.979,1.838,4.006,4.006c-0.699,1.963-2.782,9.015,1.415,13.755c2.021,2.284,4.722,2.654,7.334,3.011   c3.656,0.5,6.815,0.932,8.219,6.522c0.103,0.404,0.406,0.725,0.803,0.852c0.12,0.038,0.242,0.056,0.364,0.056   c0.284,0,0.563-0.101,0.784-0.291l7.552-6.489c0.277-0.237,0.43-0.587,0.418-0.953   C421.816,479.914,419.521,472.871,411.755,472.871z M391.734,460.862c-1.854-0.544-3.661-0.282-5.046,0.155l1.638-5.471   c4.694-0.751,8.146,0.033,10.265,2.328c4.058,4.388,2.516,13.175,1.954,15.741c-0.77-0.177-1.327-0.472-1.74-0.887   c-0.882-0.885-1.253-2.56-1.239-5.602c0-0.003-0.001-0.005-0.001-0.007c0-0.026-0.012-0.051-0.013-0.077   c-0.009-0.127-0.031-0.249-0.077-0.362c-0.004-0.011-0.002-0.023-0.007-0.034C396.12,463.533,394.191,461.59,391.734,460.862z    M413.794,488.067c-2.084-5.475-6.25-6.043-9.66-6.51c-2.377-0.324-4.431-0.606-5.862-2.22c-1.502-1.697-1.948-3.872-1.936-5.888   c0.221,0.361,0.476,0.685,0.765,0.976c1.202,1.206,2.99,1.77,5.628,1.77c1.725,0,3.94-0.235,6.968-0.739   c0.72-0.12,1.413-0.181,2.058-0.181c6.341,0,7.526,5.994,7.745,7.892L413.794,488.067z"/>
	<path style="fill:#241726;" d="M103.245,414.939l-1.396-9.859c-0.052-0.361-0.263-0.678-0.577-0.866   c-0.122-0.073-3.039-1.774-6.524-1.774c-2.87,0-6.794,1.171-9.178,6.742c-1.062,2.482-1.979,4.347-2.824,5.707   c-2.382-2.341-9.362-8.46-16.176-7.247c-4.1,0.732-7.324,3.938-9.587,9.531c-0.169,0.418-0.089,0.894,0.204,1.234l5.928,6.886   c0.232,0.27,0.566,0.415,0.908,0.415c0.143,0,0.289-0.023,0.427-0.077c0.472-0.178,0.784-0.636,0.777-1.141   c0-0.033-0.016-3.408,2.166-5.29c1.289-1.11,3.155-1.502,5.526-1.205c1.168,1.507,5.34,6.333,10.886,6.333   c0.479,0,0.965-0.035,1.46-0.113c3.011-0.472,4.778-2.549,6.487-4.558c1.849-2.173,3.445-4.048,6.484-4.048   c1.016,0,2.173,0.214,3.44,0.638c0.394,0.124,0.828,0.047,1.15-0.218C103.144,415.765,103.304,415.352,103.245,414.939z    M65.808,417.396c-1.464,1.27-2.211,2.931-2.591,4.335l-3.724-4.328c1.899-4.356,4.419-6.843,7.494-7.395   c5.845-1.026,12.393,4.933,14.286,6.813c-0.751,0.742-1.476,1.072-2.24,1.072c-1.145,0-2.626-0.627-4.806-2.035   c-0.003-0.002-0.006-0.002-0.008-0.004c-0.018-0.011-0.041-0.015-0.06-0.025c-0.117-0.066-0.239-0.114-0.366-0.137   c-0.009-0.002-0.016-0.008-0.026-0.01C70.413,415.139,67.742,415.718,65.808,417.396z M98.235,413.207   c-4.152,0-6.362,2.6-8.315,4.893c-1.554,1.828-2.896,3.408-5.027,3.741c-2.269,0.364-4.323-0.444-6.017-1.547   c0.054,0.002,0.106,0.002,0.157,0.002c3.694,0,5.923-3.574,8.747-10.171c1.5-3.504,3.844-5.283,6.968-5.283   c2.068,0,3.947,0.772,4.809,1.185l1.054,7.437C99.779,413.292,98.993,413.207,98.235,413.207z"/>
	<g>
		<path style="fill:#FFFFFF;" d="M164.776,276.014l2.983-17.687c0.402-2.945,1.884-5.126,4.446-6.545l-0.083,0.604    c0.269-0.121,0.512-0.167,0.729-0.137c1.488,0.203,2.998,3.022,4.529,8.458c1.532,5.436,2.777,11.344,3.738,17.728    c0.959,6.383,1.904,12.82,2.834,19.31c0.93,6.49,1.537,10.307,1.823,11.451c3.086-13.125,5.921-29.143,8.502-48.053l0.209-2.577    c0.258-1.891,1.178-2.729,2.759-2.513c0.898,0.123,1.522,0.587,1.87,1.392c0.348,0.805,0.454,1.704,0.319,2.696l-0.984,7.208    c-1.083,7.463-2.777,17.392-5.084,29.786c-2.308,12.396-4.083,19.329-5.327,20.801c-1.808,0.29-3.045,0.39-3.711,0.298    c-0.667-0.091-1.148-0.386-1.442-0.884c-0.295-0.498-0.488-1.227-0.578-2.187s-0.191-1.604-0.304-1.936l0.104-0.412    c0.322-2.355-0.935-10.153-3.77-23.393c-2.834-13.239-4.951-22.37-6.35-27.392l-6.544,47.941c0.044,0.132,0.139,0.367,0.283,0.702    c0.309,0.737,0.424,1.4,0.344,1.989c-0.081,0.589-0.448,1.14-1.102,1.65c-0.654,0.511-1.369,0.713-2.144,0.607    c-2.077-0.284-2.851-2.362-2.322-6.238L164.776,276.014z"/>
		<path style="fill:#FFFFFF;" d="M205.287,271.351l0.124-8.135c0.357-4.522,1.876-6.678,4.559-6.466    c1.715,0.135,4.023,0.718,6.924,1.747c2.9,1.029,4.301,2.168,4.203,3.416c-0.104,1.31-1.118,2.234-3.043,2.772    c-2.885-1.231-5.253-2.03-7.108-2.396c-0.015,1.38-0.076,2.756-0.185,4.128l-1.506,13.722c-0.005,0.063,0.049,0.569,0.163,1.52    l3.427,0.129c3.088,0.244,4.562,1.239,4.425,2.985c-0.054,0.687-0.382,1.265-0.984,1.735s-1.332,0.672-2.189,0.604    c-0.858-0.067-1.781-0.203-2.769-0.407l-2.433-0.192c-0.005,2.448-0.102,4.873-0.292,7.274l-1.791,17.324    c-0.283,3.587-0.363,5.385-0.238,5.395l7.083,0.323c2.433,0.192,3.587,1.068,3.464,2.627c-0.076,0.967-0.553,1.635-1.429,2.006    c-0.876,0.37-1.846,0.513-2.906,0.43l-8.094-0.639c-0.842-0.066-1.584-0.416-2.224-1.046c-0.641-0.631-0.945-1.353-0.912-2.167    l0.199-2.526l0.669-16.236L205.287,271.351z"/>
		<path style="fill:#FFFFFF;" d="M252.309,259.888c0.038-1.564,0.955-2.325,2.754-2.281c1.798,0.043,2.68,0.815,2.644,2.316    c-0.048,2.034-0.158,3.345-0.329,3.936l-0.012,0.516c-0.94,2.638-1.448,5.568-1.525,8.789l-0.168,7.038    c-0.096,4.004-0.733,10.021-1.911,18.051c-1.178,8.031-1.81,13.829-1.896,17.395c-0.156,6.506-1.469,9.729-3.94,9.67    c-1.846-0.044-2.735-1.435-2.67-4.171c0.065-2.737,0.038-5.499-0.083-8.288c-0.121-2.788-0.353-5.86-0.695-9.218    c-0.342-3.357-0.644-6.125-0.904-8.308c-0.261-2.181-0.656-5.304-1.184-9.37c-0.529-4.065-0.886-6.82-1.07-8.264    c-0.27,2.122-0.431,4.262-0.482,6.42s-0.392,6.227-1.02,12.205c-0.629,5.978-1.619,12.049-2.971,18.213    c-1.353,6.165-2.795,9.228-4.328,9.191c-2.47-0.091-4.171-6.844-5.101-20.261c-0.425-5.768-0.788-11.567-1.086-17.396    c-0.77-14.915-1.554-23.337-2.353-25.265c0.559-1.113,1.495-1.654,2.809-1.623c2.064,0.049,3.041,2.396,2.93,7.041    c-0.111,4.645,0.392,11.746,1.509,21.302c1.117,9.557,1.701,16.526,1.753,20.909c3.166-18.482,4.864-32.572,5.096-42.269    l2.607-1.064c0.781,0.019,1.449,0.239,2.002,0.658c0.553,0.42,0.821,1.006,0.803,1.756l-0.019,0.798    c1.666,6.206,2.891,15.169,3.675,26.893c0.372,5.36,0.742,9.517,1.11,12.467c1.401-8.854,2.249-19.428,2.543-31.721    c0.039-1.626,0.338-4.029,0.9-7.208c0.561-3.179,0.861-5.582,0.9-7.208C252.393,260.97,252.296,260.42,252.309,259.888z"/>
		<path style="fill:#FFFFFF;" d="M289.465,315.77c0.248,4.28-0.676,6.479-2.768,6.601c-1.156,0.067-2.087-0.584-2.792-1.954    c0.637-1.447,0.683-6.887,0.138-16.32c-0.1-1.717-0.412-4.144-0.938-7.279c-0.526-3.135-0.859-5.372-1-6.712l-0.144-2.483    c-0.141-0.274-1.287-2.746-3.438-7.417c-4.867-10.467-7.36-16.732-7.48-18.794l-0.03-0.516l2.063-1.718    c1.97-0.082,4.599,4.733,7.887,14.446c1.436,4.242,2.155,6.379,2.157,6.409c0.208-0.732,0.57-3.151,1.085-7.255    c1.305-10.48,3.004-15.781,5.098-15.902c0.593-0.034,1.143,0.122,1.649,0.469c0.505,0.347,0.776,0.817,0.81,1.411    c0.184,3.186-0.461,7.87-1.938,14.05c-1.476,6.181-2.153,10.866-2.031,14.056L289.465,315.77z"/>
		<path style="fill:#FFFFFF;" d="M298.317,271.554l-1.373-8.019c-0.48-4.511,0.617-6.909,3.292-7.194    c1.711-0.182,4.086-0.034,7.127,0.445c3.04,0.479,4.626,1.34,4.759,2.584c0.139,1.307-0.688,2.402-2.482,3.285    c-3.062-0.68-5.537-1.03-7.427-1.049c0.239,1.359,0.432,2.723,0.577,4.091l1.042,13.765c0.006,0.062,0.153,0.55,0.439,1.463    l3.392-0.503c3.08-0.328,4.713,0.379,4.898,2.122c0.073,0.685-0.143,1.313-0.648,1.886c-0.505,0.573-1.186,0.905-2.042,0.996    c-0.856,0.091-1.788,0.127-2.796,0.109l-2.427,0.258c0.445,2.407,0.795,4.809,1.05,7.204l1.424,17.358    c0.381,3.578,0.633,5.36,0.758,5.347l7.022-0.984c2.426-0.258,3.723,0.391,3.888,1.946c0.103,0.965-0.243,1.708-1.036,2.234    c-0.794,0.524-1.72,0.844-2.777,0.957l-8.073,0.859c-0.84,0.09-1.633-0.117-2.378-0.62c-0.746-0.502-1.178-1.156-1.295-1.962    l-0.268-2.52l-2.326-16.082L298.317,271.554z"/>
		<path style="fill:#FFFFFF;" d="M343.935,294.553l1.979,5.667c0.127,0.772,0.738,2.606,1.833,5.501    c1.095,2.896,1.718,4.806,1.871,5.732l0.015,0.093c0.229,1.389-0.149,2.371-1.132,2.945c-1.328,0.218-2.397,0.172-3.209-0.138    s-1.319-1.083-1.522-2.318c-0.442-2.686-1.548-6.515-3.317-11.487l-9.583,0.149c-0.241,2.196-0.311,4.57-0.208,7.121    c0.102,2.551,0.109,4.421,0.019,5.609c-0.17,2.438-1.011,3.781-2.524,4.03c-0.741,0.122-1.467-0.005-2.179-0.379    c-0.712-0.374-1.128-0.932-1.25-1.673l0.094-0.872c1.553-17.156,2.081-33.699,1.585-49.63c-0.01-0.442-0.125-1.723-0.347-3.843    c-0.454-4.682-0.352-7.726,0.305-9.134l3.195-0.526c0.864-0.142,1.654-0.065,2.368,0.229c0.714,0.295,1.138,0.843,1.27,1.646    c0.792,4.816,2.608,11.858,5.449,21.125C341.485,283.668,343.248,290.385,343.935,294.553z M339.292,297.266    c-0.338-0.896-0.696-2.493-1.074-4.793c-0.378-2.299-0.98-5.134-1.803-8.502c-0.824-3.368-1.855-7.272-3.092-11.714    c-1.238-4.441-2.118-7.666-2.638-9.673c-0.255,16.372-0.264,27.883-0.025,34.534C331.856,297.65,334.733,297.7,339.292,297.266z"/>
		<path style="fill:#FFFFFF;" d="M354.892,279.301l2.258,10.171c1.912,8.261,4.012,14.631,6.301,19.111l-0.47,2.758l-2.606,0.603    l-1.552-1.086c-0.588-2.818-1.286-5.972-2.093-9.463c-0.808-3.49-2.802-10.889-5.98-22.196c-3.179-11.307-5.42-19.78-6.726-25.419    c-0.684-2.957,0.01-4.675,2.083-5.155c3.261-0.755,6.202-0.536,8.822,0.656c2.62,1.193,4.297,3.374,5.031,6.543l1.524,6.584    c0.416,1.799,0.459,3.515,0.131,5.148c-0.329,1.634-0.746,3.369-1.252,5.203c-0.507,1.836-0.784,2.855-0.833,3.059    c0.688,1.447,1.974,4.296,3.857,8.549c4.08,9.301,7.725,15.827,10.938,19.58c0.922,1.071,1.463,1.95,1.622,2.635    c0.159,0.686,0.102,1.309-0.169,1.87c-0.272,0.561-0.728,0.915-1.368,1.063c-1.311,0.303-2.916-0.907-4.814-3.631    c-1.899-2.723-3.637-5.83-5.215-9.318c-4.814-10.671-7.596-16.515-8.344-17.53L354.892,279.301z M348.877,251.646l-0.013,1.4    c0.593,2.561,1.509,6.243,2.749,11.045c1.239,4.804,2.114,8.302,2.622,10.497c1.287-1.1,2.008-3.362,2.163-6.787    c0.155-3.424,0.035-5.989-0.36-7.696c-0.395-1.707-0.731-2.954-1.01-3.74c-0.278-0.786-0.683-1.632-1.213-2.538    C352.738,251.956,351.093,251.229,348.877,251.646z"/>
	</g>
	<path style="fill:#241726;" d="M133.832,271.887c-0.322,0-0.641-0.129-0.878-0.38c-33.344-35.67-33.084-43.374-32.208-44.886   c0.709-1.23,2.187-1.598,4.384-1.082c6.297,1.469,11.436,5.323,16.881,9.404c8.465,6.346,17.195,12.931,31.948,12.295   c0.631-0.038,1.223,0.488,1.251,1.152c0.026,0.662-0.488,1.223-1.152,1.251c-15.557,0.61-25.095-6.482-33.49-12.776   c-5.233-3.924-10.178-7.63-15.982-8.984c-1.31-0.307-1.73-0.108-1.76-0.056c-1.748,3.027,15.189,24.18,31.884,42.039   c0.453,0.486,0.427,1.246-0.056,1.699C134.421,271.779,134.125,271.887,133.832,271.887z"/>
	<path style="fill:#241726;" d="M269.839,357.664c-43.4,0-75.852-11.152-76.39-11.342c-0.627-0.221-0.955-0.908-0.735-1.533   c0.221-0.629,0.915-0.953,1.532-0.735c0.892,0.314,89.983,30.896,170.304-10.284c0.591-0.298,1.317-0.066,1.619,0.521   c0.303,0.591,0.068,1.317-0.521,1.619C333.016,352.64,298.961,357.664,269.839,357.664z"/>
	<g>
		<path d="M209.155,141.968l-0.375,23.981c1.157,0.313,2.91,0.47,5.256,0.47h3.473c0.156-0.282,0.235-1.314,0.235-3.098    s-0.211-5.702-0.634-11.756c-0.422-6.054-0.633-10.614-0.633-13.68c0-0.719,0.281-1.321,0.845-1.807    c0.563-0.485,1.095-0.728,1.596-0.728c0.5,0,0.907,0.047,1.22,0.141c0.312,0.094,0.657,0.219,1.032,0.375    c0.375,0.157,0.672,0.266,0.892,0.329c0,8.323,0.305,20.485,0.916,36.489c0.61,16.003,0.915,24.271,0.915,24.803    c0,0.533-0.337,1.056-1.009,1.572c-0.673,0.516-1.424,0.774-2.252,0.774c-0.83,0-1.495-0.61-1.995-1.83    c-0.501-1.22-0.837-3.027-1.009-5.421c-0.172-2.394-0.29-4.466-0.352-6.218c-0.032-0.751-0.032-1.611,0-2.581    c0-1.314,0.015-2.816,0.047-4.505c0.062-2.972,0.094-4.693,0.094-5.163v-0.375l0.141-2.769l-0.563-0.892v-0.094    c-0.532,0.125-1.111,0.188-1.736,0.188l-6.195-0.892v11.028l0.563,15.816c0,0.908-0.235,1.713-0.704,2.417    s-1.143,1.056-2.018,1.056c-1.283,0-2.167-1.165-2.651-3.496c-0.485-2.331-0.728-5.515-0.728-9.55l0.282-14.643    c0-3.034-0.047-4.708-0.141-5.021v-0.469c0.25-3.348,0.375-5.225,0.375-5.632l-0.657-21.682c0-0.751,0.265-1.415,0.798-1.995    c0.532-0.579,1.173-0.868,1.924-0.868C208.138,136.243,209.155,138.151,209.155,141.968z"/>
		<path d="M251.298,180.31l1.033,5.914c0,0.782,0.305,2.691,0.915,5.726c0.61,3.035,0.915,5.021,0.915,5.96v0.094    c0,1.408-0.532,2.315-1.596,2.722c-1.345,0-2.393-0.219-3.144-0.657c-0.751-0.438-1.126-1.283-1.126-2.535    c0-2.722-0.469-6.679-1.408-11.874l-9.48-1.408c-0.595,2.128-1.048,4.458-1.361,6.993c-0.313,2.534-0.61,4.381-0.892,5.538    c-0.563,2.378-1.612,3.566-3.145,3.566c-0.751,0-1.447-0.243-2.088-0.728c-0.642-0.484-0.962-1.103-0.962-1.854l0.234-0.845    c4.318-16.676,7.524-32.914,9.621-48.714c0.062-0.438,0.156-1.72,0.282-3.848c0.312-4.693,0.907-7.681,1.783-8.964h3.238    c0.875,0,1.643,0.204,2.299,0.61c0.657,0.407,0.986,1.017,0.986,1.831c0,4.881,0.649,12.124,1.948,21.729    C250.649,169.173,251.298,176.087,251.298,180.31z M246.277,182.235c-0.188-0.938-0.282-2.573-0.282-4.904    c0-2.331-0.133-5.225-0.399-8.682c-0.266-3.457-0.649-7.478-1.149-12.061c-0.501-4.583-0.845-7.908-1.033-9.973    c-2.91,16.114-4.787,27.471-5.632,34.072C238.877,181.406,241.708,181.922,246.277,182.235z"/>
		<path d="M260.075,158.3l0.141-9.152c0-3.911-0.251-6.882-0.751-8.917c0.438-2.253,1.298-3.379,2.581-3.379h4.224    c3.691,0,6.289,1.534,7.791,4.6c1.314,2.722,1.971,5.851,1.971,9.386c0,4.474-0.11,7.22-0.329,8.236    c-0.219,1.017-0.454,1.979-0.704,2.886c-0.251,0.908-0.556,1.643-0.915,2.206c-0.36,0.563-0.821,1.181-1.385,1.854    c-0.563,0.673-1.205,1.244-1.924,1.713c-1.596,1.032-3.52,1.909-5.772,2.628v10.278l0.75,18.209c0,0.782-0.328,1.447-0.985,1.994    s-1.408,0.821-2.252,0.821l-2.018-1.173c-0.783-3.536-1.173-8.244-1.173-14.126l0.375-17.13c-0.375-0.845-0.563-1.626-0.563-2.346    v-0.329C259.761,165.309,260.075,162.556,260.075,158.3z M264.861,147.506l0.188,18.726v0.141c3.817-0.5,5.726-5.913,5.726-16.238    c0-3.035-0.375-5.1-1.126-6.195c-0.814-1.157-2.065-1.736-3.754-1.736c0-0.094-0.345-0.141-1.033-0.141V147.506z"/>
		<path d="M282.743,158.3l0.141-9.152c0-3.911-0.251-6.882-0.751-8.917c0.438-2.253,1.298-3.379,2.581-3.379h4.224    c3.691,0,6.289,1.534,7.791,4.6c1.314,2.722,1.971,5.851,1.971,9.386c0,4.474-0.11,7.22-0.329,8.236    c-0.219,1.017-0.454,1.979-0.704,2.886c-0.251,0.908-0.556,1.643-0.915,2.206c-0.36,0.563-0.821,1.181-1.385,1.854    c-0.563,0.673-1.205,1.244-1.924,1.713c-1.596,1.032-3.52,1.909-5.772,2.628v10.278l0.75,18.209c0,0.782-0.328,1.447-0.985,1.994    s-1.408,0.821-2.252,0.821l-2.018-1.173c-0.783-3.536-1.173-8.244-1.173-14.126l0.375-17.13c-0.375-0.845-0.563-1.626-0.563-2.346    v-0.329C282.429,165.309,282.743,162.556,282.743,158.3z M287.529,147.506l0.188,18.726v0.141c3.817-0.5,5.726-5.913,5.726-16.238    c0-3.035-0.375-5.1-1.126-6.195c-0.814-1.157-2.065-1.736-3.754-1.736c0-0.094-0.345-0.141-1.033-0.141V147.506z"/>
		<path d="M317.377,194.719c0,4.287-1.049,6.429-3.145,6.429c-1.158,0-2.05-0.704-2.675-2.112c0.72-1.408,1.08-6.836,1.08-16.285    c0-1.72-0.172-4.161-0.516-7.321c-0.345-3.16-0.548-5.413-0.61-6.758v-2.487c-0.125-0.282-1.126-2.816-3.003-7.603    c-4.255-10.731-6.383-17.129-6.383-19.194v-0.517l2.159-1.596c1.971,0.032,4.317,4.991,7.04,14.877    c1.188,4.317,1.783,6.493,1.783,6.523c0.25-0.72,0.751-3.113,1.502-7.181c1.908-10.387,3.911-15.581,6.007-15.581    c0.594,0,1.133,0.188,1.619,0.563c0.485,0.375,0.728,0.861,0.728,1.455c0,3.191-0.915,7.83-2.745,13.915    c-1.831,6.085-2.777,10.724-2.839,13.915V194.719z"/>
	</g>
	<g>
		<path style="fill:#241726;" d="M255.253,78.016c-71.708,0-128.29-12.11-129.173-12.302c-0.648-0.141-1.058-0.782-0.915-1.429    c0.141-0.65,0.796-1.054,1.429-0.918c1.373,0.3,138.739,29.678,256.853-3.638c0.636-0.174,1.302,0.192,1.483,0.831    c0.181,0.638-0.192,1.302-0.831,1.483C341.216,74.139,295.811,78.016,255.253,78.016z"/>
		<path style="fill:#C27B9A;" d="M208.459,74.025c0,0,46.913-2.956,46.913,0s-20.106,49.272-24.294,49.272    C226.889,123.297,205.946,77.967,208.459,74.025z"/>
		<path style="fill:#E23962;" d="M263.147,72.611c0,0,46.862-5.343,46.926-2.391c0.064,2.952-19.045,50.23-23.235,50.443    S260.718,76.676,263.147,72.611z"/>
		<path style="fill:#EE919B;" d="M317.128,67.603c0,0,45.679-11.748,46.149-8.833c0.47,2.915-11.943,52.374-16.064,53.163    C343.092,112.722,315.282,71.963,317.128,67.603z"/>
		<path style="fill:#E23962;" d="M151.828,64.333c0,0,46.787,5.013,46.425,7.939c-0.362,2.926-25.922,45.357-30.068,44.648    C164.041,116.211,148.859,67.808,151.828,64.333z"/>
	</g>
	<path style="fill:#241726;" d="M154.691,197.907c-0.706,0-1.488-0.465-1.636-1.504c-0.009-0.244,0.08-6.451,0.404-13.37   c-4.727-2.075-8.327-3.739-8.327-3.739c-0.437-0.204-0.711-0.648-0.697-1.129c0.016-0.483,0.319-0.908,0.767-1.084   c0,0,3.868-1.495,8.845-3.262c0.906-10.563,2.061-11.42,3.469-11.42c0.314,0,0.784,0.096,1.239,0.551   c1.124,1.124,3.717,3.964,6.468,7.172c4.515-1.345,7.571-2,9.329-2c2.265,0,2.572,1.232,2.6,1.76   c0.026,0.476,0.084,1.572-5.025,8.789c5.325,7.125,5.722,9.491,5.456,10.753c-0.134,0.634-0.505,1.148-1.049,1.45   c-0.293,0.164-0.652,0.244-1.094,0.244h-0.002c-0.969,0-3.095-0.34-10.31-3.185C157.113,197.907,155.423,197.907,154.691,197.907z    M155.817,184.063c-0.207,4.649-0.307,8.855-0.347,10.892c1.199-0.96,3.53-3.281,7.325-7.953   C160.689,186.143,158.352,185.159,155.817,184.063z M166.69,185.967c5.578,2.173,7.726,2.671,8.552,2.741   c-0.052-0.615-0.613-2.582-4.588-7.986C169.38,182.47,168.037,184.246,166.69,185.967z M155.941,181.496   c3.114,1.356,5.938,2.544,8.42,3.546c1.61-2.044,3.274-4.245,4.781-6.327c-1.392-1.805-2.978-3.762-4.729-5.834   c-2.384,0.737-5.1,1.64-8.097,2.687C156.169,177.495,156.045,179.51,155.941,181.496z M148.758,178.307   c1.277,0.577,2.945,1.328,4.832,2.159c0.075-1.347,0.157-2.699,0.251-4.02C151.858,177.154,150.098,177.804,148.758,178.307z    M166.922,172.13c1.331,1.589,2.558,3.107,3.675,4.539c2.298-3.281,3.436-5.201,3.9-6.142   C173.498,170.536,171.386,170.844,166.922,172.13z M157.716,165.333c-0.296,0.936-0.746,3.02-1.178,7.613   c2.23-0.77,4.297-1.457,6.179-2.053C160.569,168.412,158.772,166.443,157.716,165.333z"/>
	<path style="fill:#241726;" d="M287.452,52.508c-0.016,0-0.068,0-0.085,0c-0.751-0.031-1.875-0.077-8.219-8.444   c-3.893,1.406-9.96,3.429-12.614,3.429c-0.359,0-1.457,0-2.009-0.835c-0.178-0.272-0.429-0.847-0.094-1.636   c0.117-0.214,3.422-5.471,7.296-11.211c-2.962-4.231-5.17-7.524-5.17-7.524c-0.27-0.399-0.272-0.922-0.009-1.326   c0.265-0.404,0.746-0.605,1.218-0.526c0,0,4.081,0.732,9.251,1.809c5.522-7.54,7.012-8.186,8.061-8.186   c0.62,0,1.371,0.354,1.61,1.347c0.378,1.544,1.117,5.32,1.8,9.488c8.32,2.187,9.913,3.457,10.368,4.501   c0.218,0.495,0.199,1.028-0.052,1.497c-0.228,0.42-0.746,1.387-8.862,4.896c0.838,8.789-0.031,11.03-0.894,11.988   C288.616,52.255,288.064,52.508,287.452,52.508L287.452,52.508z M281.507,43.194c3.797,4.964,5.325,6.386,5.876,6.792   c0.277-0.547,0.824-2.513,0.237-9.211C285.624,41.603,283.551,42.424,281.507,43.194z M273.209,35.914   c-2.596,3.865-4.865,7.404-5.961,9.125c1.95-0.237,5.679-1.31,10.394-2.985C276.288,40.225,274.805,38.172,273.209,35.914z    M274.647,33.788c1.957,2.776,3.753,5.262,5.351,7.407c2.438-0.911,5.003-1.924,7.371-2.922c-0.249-2.265-0.587-4.762-1.007-7.442   c-2.42-0.608-5.21-1.251-8.315-1.913C276.921,30.488,275.767,32.145,274.647,33.788z M288.897,31.492   c0.31,2.049,0.57,3.987,0.779,5.79c3.682-1.615,5.654-2.666,6.536-3.227C295.455,33.605,293.57,32.764,288.897,31.492z    M270.167,27.327c0.791,1.159,1.828,2.666,3.006,4.358c0.763-1.112,1.537-2.225,2.305-3.304   C273.415,27.956,271.575,27.597,270.167,27.327z M279.599,26.794c2.305,0.5,4.428,0.986,6.346,1.457   c-0.547-3.255-1.063-5.888-1.387-7.378C283.87,21.493,282.406,23.027,279.599,26.794z"/>
	<path style="fill:#241726;" d="M489.616,417.26c-0.019,0-0.073,0-0.087,0c-0.751-0.031-1.875-0.075-8.219-8.442   c-3.893,1.403-9.96,3.426-12.614,3.426c-0.361,0-1.457,0-2.009-0.833c-0.178-0.272-0.429-0.847-0.094-1.636   c0.117-0.214,3.422-5.47,7.296-11.211c-2.962-4.231-5.17-7.524-5.17-7.524c-0.27-0.399-0.272-0.922-0.009-1.326   c0.265-0.404,0.746-0.605,1.218-0.526c0,0,4.081,0.732,9.251,1.809c5.52-7.54,7.012-8.186,8.059-8.186   c0.622,0,1.373,0.354,1.612,1.347c0.375,1.542,1.117,5.318,1.8,9.488c8.32,2.187,9.913,3.457,10.368,4.501   c0.218,0.495,0.199,1.028-0.052,1.497c-0.228,0.42-0.749,1.387-8.864,4.893c0.84,8.789-0.028,11.03-0.892,11.988   C490.78,417.007,490.226,417.26,489.616,417.26L489.616,417.26z M483.669,407.948c3.795,4.961,5.325,6.383,5.876,6.789   c0.277-0.547,0.824-2.513,0.237-9.211C487.786,406.357,485.713,407.178,483.669,407.948z M475.371,400.668   c-2.596,3.865-4.865,7.404-5.961,9.125c1.95-0.239,5.679-1.31,10.394-2.988C478.45,404.979,476.967,402.923,475.371,400.668z    M476.809,398.542c1.957,2.776,3.753,5.262,5.348,7.404c2.441-0.908,5.003-1.924,7.374-2.919c-0.251-2.267-0.587-4.762-1.007-7.442   c-2.42-0.608-5.21-1.251-8.315-1.913C479.084,395.24,477.929,396.899,476.809,398.542z M491.06,396.246   c0.31,2.049,0.57,3.985,0.779,5.79c3.682-1.617,5.651-2.666,6.534-3.227C497.617,398.359,495.732,397.518,491.06,396.246z    M472.329,392.081c0.791,1.159,1.828,2.666,3.006,4.358c0.763-1.112,1.537-2.225,2.305-3.304   C475.577,392.71,473.737,392.351,472.329,392.081z M481.761,391.548c2.305,0.5,4.428,0.986,6.346,1.457   c-0.547-3.257-1.063-5.888-1.387-7.381C486.033,386.247,484.568,387.779,481.761,391.548z"/>
	<path style="fill:#241726;" d="M35.241,343.337c-0.298,0-0.871-0.092-1.354-0.711c-0.129-0.207-3.138-5.639-6.294-11.805   c-5.133,0.549-9.082,0.894-9.082,0.894c-0.479,0.04-0.941-0.209-1.166-0.634c-0.228-0.425-0.176-0.946,0.127-1.321   c0,0,2.612-3.22,6.053-7.226c-3.994-8.606-3.785-10.211-3.22-11.103c0.3-0.472,0.8-0.744,1.371-0.744   c0.108,0,0.432,0.047,0.533,0.075c1.535,0.418,5.198,1.591,9.179,3.009c5.771-6.062,7.632-6.916,8.768-6.916   c0.613,0,1.145,0.284,1.464,0.777c0.26,0.401,0.854,1.324,0.007,10.127c8.162,3.534,9.683,5.391,10.082,6.618   c0.199,0.617,0.131,1.249-0.19,1.779c-0.387,0.643-0.969,1.605-11.359,3.119C37.933,343.339,36.318,343.337,35.241,343.337z    M30.15,330.542c2.133,4.14,4.135,7.838,5.111,9.627c0.566-1.429,1.434-4.6,2.403-10.544   C35.412,329.927,32.896,330.232,30.15,330.542z M24.649,324.914c-1.366,1.601-2.572,3.039-3.487,4.142   c1.396-0.134,3.218-0.312,5.269-0.528C25.825,327.322,25.227,326.106,24.649,324.914z M26.363,322.924   c0.828,1.744,1.723,3.555,2.621,5.33c3.375-0.373,6.419-0.744,9.068-1.108c0.383-2.577,0.73-5.311,1.002-7.867   c-2.103-0.875-4.452-1.786-7.001-2.713C30.352,318.39,28.442,320.525,26.363,322.924z M41.366,320.267   c-0.237,2.15-0.521,4.36-0.833,6.522c6.182-0.927,8.162-1.579,8.784-1.868C48.972,324.417,47.515,322.987,41.366,320.267z    M22.49,313.344c0.207,0.962,0.854,2.995,2.762,7.193c1.549-1.777,3.002-3.398,4.339-4.851   C26.499,314.6,23.957,313.785,22.49,313.344z M33.856,314.668c1.943,0.718,3.767,1.425,5.447,2.112   c0.364-4.013,0.394-6.245,0.329-7.285C38.888,309.932,37.243,311.173,33.856,314.668z"/>
	<path style="fill:#241726;" d="M367.054,166.129c-0.019,0-0.073,0-0.087,0c-0.751-0.031-1.875-0.075-8.219-8.442   c-3.893,1.403-9.96,3.426-12.614,3.426c-0.361,0-1.457,0-2.009-0.833c-0.178-0.272-0.429-0.847-0.094-1.636   c0.117-0.214,3.422-5.471,7.296-11.211c-2.962-4.231-5.17-7.524-5.17-7.524c-0.27-0.399-0.272-0.922-0.009-1.326   c0.265-0.404,0.742-0.608,1.218-0.526c0,0,4.081,0.732,9.251,1.809c5.52-7.54,7.012-8.186,8.059-8.186   c0.622,0,1.373,0.354,1.612,1.347c0.375,1.542,1.117,5.318,1.8,9.488c8.32,2.187,9.913,3.457,10.368,4.501   c0.218,0.495,0.199,1.028-0.052,1.497c-0.228,0.42-0.749,1.387-8.864,4.893c0.84,8.789-0.028,11.03-0.892,11.988   C368.219,165.875,367.665,166.129,367.054,166.129L367.054,166.129z M361.108,156.816c3.795,4.961,5.325,6.383,5.876,6.789   c0.277-0.547,0.824-2.513,0.237-9.211C365.224,155.225,363.152,156.047,361.108,156.816z M352.809,149.537   c-2.596,3.865-4.865,7.404-5.961,9.125c1.95-0.239,5.679-1.31,10.394-2.988C355.888,153.848,354.405,151.792,352.809,149.537z    M354.248,147.41c1.957,2.776,3.753,5.262,5.348,7.404c2.441-0.908,5.003-1.924,7.374-2.919c-0.251-2.267-0.587-4.762-1.007-7.442   c-2.42-0.608-5.21-1.251-8.315-1.913C356.522,144.108,355.367,145.768,354.248,147.41z M368.498,145.115   c0.31,2.049,0.57,3.985,0.779,5.79c3.682-1.617,5.651-2.666,6.534-3.227C375.055,147.227,373.17,146.387,368.498,145.115z    M349.768,140.949c0.791,1.159,1.828,2.666,3.006,4.358c0.763-1.112,1.537-2.225,2.305-3.304   C353.016,141.578,351.176,141.219,349.768,140.949z M359.2,140.417c2.305,0.5,4.428,0.986,6.346,1.457   c-0.547-3.257-1.063-5.888-1.387-7.381C363.471,135.115,362.006,136.648,359.2,140.417z"/>
	<path style="fill:#EE919B;" d="M142.232,125.655c0,0,10.213,6.909,16.822,16.221c0,0,0.901-15.02-4.506-22.83   C154.548,119.046,147.339,119.046,142.232,125.655z"/>
	<path style="fill:#F8DC94;" d="M80.537,66.267c0,0,12.197-1.812,23.362,0.584c0,0-9.488-11.678-18.752-13.78   C85.146,53.072,79.833,57.945,80.537,66.267z"/>
	<path style="fill:#C27B9A;" d="M121.215,35.392c0,0-5.208,11.177-6.089,22.562c0,0-8.495-12.42-7.872-21.899   C107.253,36.055,113.437,32.349,121.215,35.392z"/>
	<path style="fill:#E23962;" d="M421.068,110.487c0,0,1.086,12.283-1.968,23.286c0,0,12.22-8.779,14.867-17.903   C433.966,115.871,429.417,110.278,421.068,110.487z"/>
	<path style="fill:#E23962;" d="M412.916,445.021c0,0-6.677-10.367-9.095-21.527c0,0-6.73,13.458-4.827,22.764   C398.994,446.259,405.623,449.092,412.916,445.021z"/>
	<path style="fill:#F8DC94;" d="M416.217,46.61c0,0,9.102,8.318,14.289,18.491c0,0,3.072-14.73-1.144-23.242   C429.362,41.859,422.229,40.812,416.217,46.61z"/>
	<path style="fill:#F8DC94;" d="M450.995,419.29c0,0-11.853,3.401-23.236,2.494c0,0,10.942,10.329,20.402,11.193   C448.161,432.977,452.787,427.447,450.995,419.29z"/>
	<path style="fill:#C27B9A;" d="M465.839,58.681c0,0-11.957,3.013-21.345,9.514c0,0,4.274-14.427,12.02-19.926   C456.513,48.269,463.291,50.727,465.839,58.681z"/>
	<path style="fill:#C27B9A;" d="M439.865,463.545c0,0-2.585-12.057-8.747-21.67c0,0,14.266,4.785,19.485,12.722   C450.603,454.597,447.905,461.282,439.865,463.545z"/>
	<path style="fill:#E23962;" d="M115.173,443.434c0,0,8.896-8.539,19.387-13.049c0,0-14.497-4.029-23.267-0.379   C111.292,430.006,109.781,437.056,115.173,443.434z"/>
	<path style="fill:#F8DC94;" d="M147.719,475.881c0,0-5.607-10.982-6.897-22.328c0,0-8.042,12.717-7.079,22.168   C133.743,475.72,140.056,479.202,147.719,475.881z"/>
	<path style="fill:#C27B9A;" d="M102.152,473.432c0,0,11.339-4.846,19.594-12.735c0,0-1.965,14.918-8.756,21.56   C112.99,482.257,105.912,480.889,102.152,473.432z"/>
	<path style="fill:#241726;" d="M98.284,273.438c-0.397,0-0.784-0.197-1.014-0.556c-5.956-9.362-5.51-23.83-4.654-33.109   c-2.293,6.982-5.421,17.132-7.601,24.398c-0.188,0.638-0.866,1.002-1.495,0.805c-0.636-0.19-0.997-0.859-0.805-1.495   c10.143-33.816,10.807-33.736,12.072-33.539c0.183,0.026,1.094,0.221,1.094,1.441c0,0.681-0.134,1.838-0.336,3.591   c-0.899,7.78-3.002,26.005,3.753,36.618c0.357,0.561,0.19,1.302-0.368,1.659C98.73,273.377,98.507,273.438,98.284,273.438z"/>
	<g>
		<path style="fill:#241726;" d="M115.951,424.491c-0.312,0-0.622-0.12-0.859-0.361c-0.465-0.472-0.455-1.234,0.019-1.699    c16.329-16.008,22.725-32.462,19.012-48.904c-4.745-21-26.252-38.526-45.043-44.989c-13.882-4.771-22.131-15.391-22.072-28.406    c0.012-2.316,0.303-4.572,0.838-6.705c-3.234-0.948-6.89-2.586-10.983-5.191c-30.678-19.521-10.69-62.288-10.486-62.717    c0.286-0.598,0.995-0.852,1.603-0.566c0.598,0.286,0.852,1.004,0.566,1.603c-0.197,0.411-19.272,41.276,9.608,59.652    c3.905,2.485,7.357,4.032,10.38,4.914c2.218-6.374,6.693-11.378,12.337-13.26c5.67-1.887,7.928,0.587,8.636,1.744    c1.73,2.823,0.594,7.221-2.697,10.455c-1.784,1.755-7.167,5.893-16.639,3.945c-0.486,1.95-0.749,4.013-0.76,6.135    c-0.054,11.938,7.59,21.704,20.448,26.125c19.425,6.677,41.671,24.874,46.608,46.73c3.91,17.308-2.711,34.52-19.676,51.152    C116.559,424.376,116.254,424.491,115.951,424.491z M70.871,291.694c8.183,1.603,12.736-1.852,14.255-3.347    c2.704-2.657,3.309-5.893,2.33-7.489c-0.857-1.406-2.988-1.662-5.825-0.716C76.752,281.77,72.863,286.114,70.871,291.694z"/>
		<path style="fill:#EE919B;" d="M125.735,173.28c-1.638,5.856-7.86,11.368-10.57,16.471c-2.041,3.843-0.358,7.454-2.91,10.807    c-16.409,21.555-42.539,32.437-67.409,25.483c-13.061-3.652-23.868-11.691-31.598-22.404c-2.857-3.96-1.294-8.285-3.27-12.889    c-1.723-4.017-7.095-8.246-8.087-12.63c-2.775-12.255-2.586-25.721,1.167-39.142c2.1-7.511,5.162-14.454,8.982-20.697    c2.28-3.727,8.83-7.203,11.606-10.403c2.975-3.428,2.209-6.537,5.651-9.292c15.627-12.51,35.512-17.721,54.651-12.369    c6.861,1.919,13.1,5.048,18.598,9.139c3.14,2.337,2.039,4.988,4.673,7.906c2.192,2.428,8.201,5.042,10.014,7.814    C128.263,127.937,132.057,150.672,125.735,173.28z"/>
		<path style="fill:#EE919B;" d="M51.281,213.385c0,0-16.945,21.733-14.102,22.528c2.843,0.795,27.125,5.635,27.217,2.317    C64.488,234.912,53.441,210.645,51.281,213.385z"/>
		<path style="fill:#241726;" d="M56.571,237.522c-0.444,0-0.871-0.249-1.08-0.674c-0.038-0.077-3.269-6.696-4.802-9.636    c-0.671,1.251-1.594,3.656-2.246,5.757c-0.197,0.631-0.861,0.995-1.504,0.791c-0.634-0.197-0.988-0.871-0.791-1.504    c2.452-7.895,3.896-8.047,4.511-8.113c0.655-0.059,1.237,0.265,1.589,0.892c1.122,1.99,5.229,10.401,5.402,10.758    c0.291,0.598,0.045,1.317-0.552,1.608C56.928,237.482,56.75,237.522,56.571,237.522z"/>
		<path style="fill:#F8DC94;" d="M12.051,118.285c55.104,19.55,101.564-5.205,105.168-7.203c-3.993-6.103-8.935-11.43-14.687-15.711    c-35.733,9.371-69.051,3.961-73.233,3.217C22.647,103.913,16.773,110.566,12.051,118.285z"/>
		<path style="fill:#C27B9A;" d="M3.975,135.954c-0.32,0.998-0.632,2.001-0.917,3.021c-2.079,7.435-3.053,14.881-3.047,22.129    c79.058,15.988,124.051-4.237,128.698-6.477c0.369-8.657-0.682-17.075-2.971-24.912C60.697,152.181,4.415,136.08,3.975,135.954z"/>
		<path style="fill:#F8DC94;" d="M1.899,178.115c2.13,9.409,6.013,18.096,11.363,25.511c49.84,13.55,94.946-1.656,98.977-3.08    c5.943-7.807,10.625-16.999,13.496-27.266c0.013-0.045,0.022-0.089,0.034-0.134C92.191,189.264,8.751,178.993,1.899,178.115z"/>
		<path style="fill:#241726;" d="M50.643,221.491c-0.535,0-1.058-0.218-1.49-0.638c-2.476-2.413-10.422-14.633-10.758-15.151    c-0.361-0.556-0.204-1.3,0.352-1.662c0.552-0.359,1.3-0.207,1.662,0.352c2.201,3.389,8.226,12.441,10.277,14.593    c1.413-1.305,3.764-9.716,3.351-16.684c-0.04-0.662,0.465-1.23,1.129-1.27c0.65-0.052,1.23,0.467,1.27,1.129    c0.385,6.489-1.669,17.646-4.928,19.139C51.223,221.428,50.932,221.491,50.643,221.491z"/>
		<path style="fill:#241726;" d="M55.818,222.265c-0.554,0-1.054-0.387-1.173-0.953c-0.136-0.65,0.279-1.288,0.927-1.425    c6.353-1.342,16.545-12.518,16.649-12.631c0.448-0.488,1.209-0.526,1.697-0.082c0.49,0.446,0.528,1.204,0.082,1.697    c-0.437,0.483-10.819,11.866-17.93,13.368C55.985,222.256,55.902,222.265,55.818,222.265z"/>
		<path style="fill:#241726;" d="M58.134,119.262c-1.176,0-4.323-1.359-14.335-11.906c-2.415,2.464-8.728,8.73-11.582,9.798    c-0.453,0.169-1.173,0.289-2.049-0.124c-3.314-1.561-6.51-10.455-7.118-12.225c-0.216-0.627,0.117-1.31,0.746-1.525    c0.629-0.218,1.31,0.117,1.525,0.746c1.375,3.997,4.105,10,5.869,10.831c2.344-0.763,8.284-6.447,11.751-10.07    c0.228-0.237,0.54-0.371,0.868-0.371c0.002,0,0.005,0,0.005,0c0.331,0.002,0.645,0.138,0.871,0.378    c5.135,5.466,11.53,11.49,13.243,12.042c1.117-0.739,4.25-4.811,5.97-7.045c2.206-2.865,3.095-3.985,3.678-4.372    c1.406-0.932,2.821,0.631,6.611,4.86c2.009,2.241,5.75,6.414,6.888,6.552c1.157-0.23,4.588-5.703,7.299-11.708    c0.162-0.354,0.483-0.61,0.866-0.683c0.366-0.08,0.777,0.04,1.058,0.307c2.1,1.995,7.78,7.221,9.871,8.465    c1.425-1.063,4.701-8.137,6.998-14.417c0.228-0.62,0.915-0.941,1.542-0.716c0.622,0.228,0.943,0.918,0.716,1.542    c-1.615,4.41-5.675,14.79-8.531,15.923c-0.526,0.211-1.075,0.192-1.547-0.042c-1.985-0.993-7.078-5.628-9.486-7.869    c-2.316,4.91-5.992,11.6-8.803,11.6c-1.931,0-4.56-2.776-8.662-7.353c-1.295-1.446-2.997-3.342-3.87-4.067    c-0.627,0.718-1.767,2.199-2.722,3.443c-3.389,4.4-5.715,7.327-7.13,7.89C58.557,119.196,58.392,119.262,58.134,119.262z"/>
		<path style="fill:#241726;" d="M55.161,162.902c-0.096,0-0.188-0.007-0.284-0.019c-2.131-0.268-4.231-3.016-7.435-7.512    c-1.584-2.22-3.553-4.985-4.504-5.391c-0.81-0.033-3.525,3.314-5.104,5.306c-2.394,3.016-4.654,5.862-6.794,6.719    c-3.696,1.486-6.639-4.562-8.998-9.423c-0.439-0.901-0.953-1.962-1.317-2.598c-0.711,0.547-1.873,1.589-2.856,2.469    c-4.785,4.29-7.226,6.24-8.949,5.546c-2.136-0.852-5.841-8.535-7.86-13.041c-0.272-0.605,0-1.317,0.605-1.586    c0.601-0.277,1.314-0.002,1.586,0.605c2.33,5.196,5.513,11.187,6.59,11.805c0.847-0.12,4.612-3.494,6.423-5.116    c3.067-2.751,3.87-3.394,4.715-3.394c1.155,0,1.676,1.075,3.222,4.262c1.18,2.434,4.339,8.88,5.945,8.242    c1.547-0.62,3.807-3.469,5.801-5.984c3.117-3.929,5.581-7.024,7.937-6.022c1.493,0.641,3.067,2.776,5.513,6.207    c1.807,2.535,4.536,6.367,5.778,6.522c0.913-0.12,3.581-3.736,5.175-5.895c3.492-4.724,6.775-9.179,9.678-7.583    c1.65,0.918,3.823,3.377,6.125,5.98c1.978,2.237,5.639,6.376,6.825,6.376c0.014,0,0.031,0,0.045-0.002    c0.955-0.413,2.915-4.576,4.086-7.062c2.352-4.999,3.53-7.402,5.402-7.019c1.014,0.202,2.33,1.389,5.562,4.48    c2.197,2.103,6.747,6.459,8.054,6.459c0.012,0,0.023,0,0.035-0.002c0.542-0.418,1.338-4.006,1.812-6.151    c1.056-4.764,1.967-8.88,4.576-9.207c2.272-0.277,4.48,2.293,6.799,5.027c1.143,1.352,3.187,3.95,3.997,3.788    c1.019-0.347,2.638-5.585,3.384-10.99c0.089-0.659,0.718-1.096,1.354-1.026c0.657,0.089,1.117,0.697,1.026,1.354    c-0.643,4.673-2.204,12.579-5.424,13.041c-2.056,0.289-3.945-1.985-6.172-4.614c-1.46-1.723-3.689-4.306-4.666-4.196    c-0.941,0.181-2.053,5.201-2.528,7.343c-0.92,4.154-1.556,6.747-2.962,7.686c-2.183,1.455-5.581-1.636-10.948-6.775    c-1.427-1.366-3.323-3.178-4.159-3.729c-0.737,0.807-2.065,3.628-2.971,5.555c-2.19,4.649-3.64,7.526-5.346,8.259    c-2.333,1-5.163-2.004-9.582-7.001c-2.065-2.337-4.203-4.755-5.494-5.473c-1.014-0.521-4.917,4.668-6.576,6.909    C59.082,160.37,57.116,162.899,55.161,162.902z"/>
		<path style="fill:#241726;" d="M64.295,200.369c-3.255,0-5.536-4.076-7.418-7.444c-1.162-2.077-2.478-4.431-3.539-4.903    c-1.185-0.54-4.792,4.081-6.541,6.29c-3.086,3.893-4.907,6.074-6.761,5.818c-3.33-0.476-9.34-9.859-10.903-12.384    c-0.892,0.671-2.546,2.481-3.809,3.863c-3.828,4.187-6.505,6.93-8.747,6.93c-3.952,0-11.124-8.017-12.52-9.624    c-0.437-0.5-0.383-1.26,0.117-1.694c0.5-0.439,1.26-0.38,1.694,0.117c3.18,3.654,8.601,8.798,10.709,8.798    c1.352,0,4.87-3.849,6.972-6.149c3.178-3.478,4.633-4.959,6.045-4.87c0.512,0.052,0.96,0.338,1.23,0.789    c2.802,4.673,7.916,11.61,9.554,11.845c0.749-0.153,3.027-3.027,4.534-4.931c3.365-4.248,6.536-8.261,9.401-6.994    c1.791,0.798,3.121,3.175,4.661,5.928c2.26,4.044,4.03,6.836,6.034,6.064c2.356-0.906,5.001-4.433,7.125-7.268    c2.668-3.558,4.609-6.137,6.663-5.102c1.166,0.584,2.234,2.192,3.588,4.229c1.809,2.727,4.288,6.459,6.689,6.459    c1.772,0,3.727-3.314,5.297-5.977c1.629-2.765,2.917-4.947,4.656-5.372c0.657-0.16,1.307-0.047,1.899,0.319    c1.903,1.19,3.567,3.598,5.036,5.724c0.969,1.401,2.176,3.147,2.783,3.391c1.082-0.19,6.473-5.163,10.688-9.716    c0.453-0.488,1.211-0.516,1.699-0.066c0.486,0.451,0.516,1.211,0.066,1.699c-10.577,11.42-12.661,10.587-13.344,10.312    c-1.281-0.512-2.424-2.164-3.87-4.255c-1.335-1.934-2.849-4.126-4.332-5.053c-0.725,0.021-2.342,2.765-3.21,4.238    c-1.978,3.354-4.222,7.158-7.367,7.158c-3.692,0-6.463-4.175-8.69-7.531c-0.922-1.387-2.068-3.114-2.661-3.41    c-0.514,0.192-2.41,2.72-3.666,4.396c-2.429,3.241-5.182,6.914-8.183,8.068C65.32,200.273,64.795,200.369,64.295,200.369z"/>
	</g>
	<g>
		<path style="fill:#EE919B;" d="M511.578,217.156c0,40.093-28.516,72.595-63.692,72.595c-12.015,0-23.252-3.792-32.842-10.382    c-3.299-2.268-1.366-5.992-4.24-8.882c-3.517-3.537-11.727-6.384-14.489-10.719c-2.671-4.193-4.959-8.724-6.803-13.527    c-1.109-2.888,2.942-5.875,2.165-8.944c-1.24-4.906-7.039-10.025-7.344-15.298c-0.092-1.601-0.139-3.216-0.139-4.843    c0-40.093,28.516-72.595,63.692-72.595c22.66,0,42.556,13.487,53.845,33.803c2.376,4.275-1.629,8.853-0.07,13.671    c1.393,4.305,8.439,8.802,9.097,13.446C511.298,209.282,511.578,213.182,511.578,217.156z"/>
		<path style="fill:#EE919B;" d="M450.675,275.83c0,0-10.466,25.494-7.514,25.494s27.641-1.878,26.835-5.099    C469.191,293.005,452.017,272.61,450.675,275.83z"/>
		<path style="fill:#241726;" d="M461.947,297.695c-0.331,0-0.659-0.136-0.899-0.404c-0.056-0.063-4.945-5.562-7.214-7.982    c-0.293,1.312-0.547,3.724-0.615,6.146c-0.019,0.662-0.631,1.173-1.237,1.166c-0.662-0.019-1.185-0.573-1.166-1.237    c0.235-8.263,1.584-8.798,2.159-9.026c0.598-0.239,1.26-0.08,1.77,0.429c1.617,1.617,7.836,8.608,8.101,8.906    c0.441,0.495,0.397,1.256-0.101,1.697C462.517,297.594,462.231,297.695,461.947,297.695z"/>
		<path style="fill:#C27B9A;" d="M394.784,177.078c-4.56,7.832-7.816,16.73-9.429,26.297c62.561-1.248,107.85-32.466,110.312-34.196    c-6.362-8.225-14.325-14.799-23.344-19.074C439.785,169.787,397.562,176.643,394.784,177.078z"/>
		<path style="fill:#F8DC94;" d="M389.526,246.236c50.646-0.279,112.576-35.665,121.221-40.754    c-1.396-9.842-4.532-19.015-9.032-27.11C473.667,202,394.739,219.74,384.351,221.998    C384.846,230.57,386.643,238.733,389.526,246.236z"/>
		<path style="fill:#C27B9A;" d="M503.47,252.592c3.789-7.705,6.378-16.274,7.486-25.388c0.188-1.549,0.33-3.114,0.431-4.692    c-35.863,25.044-104.36,35.64-115.102,37.176c3.743,5.888,8.238,11.112,13.328,15.485c0.076,0.065,0.153,0.13,0.23,0.195    c1.646,1.401,3.354,2.715,5.118,3.932c0.029,0.02,0.059,0.039,0.088,0.06C463.95,278.892,497.729,256.642,503.47,252.592z"/>
		<path style="fill:#241726;" d="M373.159,466.509c-0.293,0-0.589-0.108-0.821-0.324c-8.235-7.705-11.955-15.175-11.37-22.835    c1.164-15.269,19.495-27.805,37.226-39.927l4.419-3.03c10.174-7.017,15.299-14.9,15.233-23.429    c-0.019-2.239-0.404-4.335-1.009-6.238c-6.299,0.662-9.136-1.432-10.406-3.239c-1.971-2.8-1.342-6.686,0.486-8.561    c1.256-1.291,2.924-1.502,4.351-0.552c1.901,1.267,5.137,4.748,7.163,9.688c3.178-0.566,7.31-1.849,12.673-4.302    c30.786-14.074,24.039-63.079,23.966-63.571c-0.094-0.657,0.359-1.267,1.016-1.363c0.641-0.08,1.267,0.357,1.364,1.016    c0.073,0.512,7.059,51.29-25.346,66.106c-5.248,2.398-9.467,3.76-12.858,4.414c0.605,2.016,0.986,4.224,1.004,6.583    c0.049,6.444-2.734,16.088-16.271,25.423l-4.428,3.039c-17.261,11.8-35.109,24.006-36.186,38.125    c-0.526,6.886,2.948,13.722,10.617,20.896c0.483,0.453,0.509,1.213,0.056,1.699C373.799,466.382,373.48,466.509,373.159,466.509z     M409.422,360.187c-0.211,0-0.476,0.099-0.786,0.418c-0.997,1.023-1.572,3.612-0.242,5.501c0.598,0.852,2.485,2.64,7.552,2.274    c-1.812-4.095-4.485-6.987-6.013-8.005C409.823,360.302,409.652,360.187,409.422,360.187z"/>
		<path style="fill:#241726;" d="M451.712,283.882c-0.357,0-0.723-0.096-1.075-0.286c-3.037-1.657-13.98-11.286-14.443-11.694    c-0.5-0.439-0.547-1.197-0.108-1.694c0.439-0.498,1.197-0.549,1.694-0.108c3.034,2.671,11.274,9.768,13.828,11.284    c1.011-1.636,1.011-10.371-1.265-16.968c-0.216-0.627,0.117-1.312,0.744-1.528c0.624-0.216,1.312,0.117,1.528,0.744    c2.122,6.146,3.147,17.444,0.408,19.76C452.639,283.715,452.184,283.882,451.712,283.882z"/>
		<path style="fill:#241726;" d="M457.115,283.204c-0.432,0-0.852-0.235-1.065-0.645c-0.307-0.589-0.08-1.314,0.509-1.622    c5.762-3.004,12.563-16.51,12.631-16.646c0.298-0.591,1.019-0.833,1.612-0.537c0.594,0.298,0.833,1.019,0.537,1.612    c-0.291,0.584-7.226,14.342-13.668,17.702C457.493,283.159,457.302,283.204,457.115,283.204z"/>
		<path style="fill:#241726;" d="M402.079,199.062c-4.147,0-10.23-8.402-12.809-12.272c-0.368-0.552-0.218-1.298,0.333-1.666    c0.547-0.366,1.295-0.221,1.666,0.333c4.321,6.477,9.538,11.786,10.929,11.183c1.209-0.537,2.373-4.6,3.142-7.289    c1.176-4.1,1.981-6.646,3.628-7.28c0.641-0.242,1.335-0.162,1.962,0.23c1.012,0.631,2.438,1.875,4.093,3.316    c2.988,2.603,8.561,7.43,10.404,6.618c1.453-0.645,2.678-5.686,3.408-8.7c1.061-4.367,1.716-7.003,3.724-6.602    c1.11,0.223,2.76,1.518,5.581,3.79c1.788,1.436,4.691,3.776,5.825,4.161c0.54-0.896,1.305-3.872,1.826-5.898    c1.542-6.006,2.607-9.685,4.959-9.685c1.718,0,4.539,1.781,8.646,4.501c1.662,1.101,3.854,2.551,4.877,2.995    c0.469-1.124,1.131-4.055,1.633-6.275c1.488-6.59,2.352-9.786,3.842-10.627c0.446-0.249,0.948-0.3,1.408-0.146    c1.188,0.397,2.579,1.706,4.75,3.811c1.434,1.389,4.457,4.189,5.327,4.194c0.817-0.49,1.774-5.32,1.96-10.117    c0.026-0.648,0.559-1.155,1.202-1.155c0.014,0,0.03,0,0.047,0c0.662,0.026,1.18,0.584,1.155,1.249    c-0.162,4.199-0.85,11.385-3.626,12.309c-2.122,0.692-4.717-1.828-7.738-4.755c-1.188-1.15-2.624-2.544-3.469-3.07    c-0.81,1.286-1.863,5.954-2.516,8.836c-1.439,6.381-1.908,7.907-3.189,8.226c-1.185,0.291-2.753-0.667-6.989-3.471    c-2.469-1.633-6.198-4.102-7.32-4.102c-0.737,0.505-1.969,5.302-2.631,7.878c-1.317,5.123-1.964,7.402-3.541,7.719    c-1.514,0.31-3.588-1.199-7.944-4.708c-1.392-1.119-3.218-2.591-4.14-3.117c-0.413,0.875-0.932,3.006-1.324,4.626    c-1.098,4.522-2.232,9.202-4.766,10.328c-3.018,1.349-7.465-2.215-12.959-7.003c-1.509-1.317-2.936-2.56-3.785-3.091    c-0.486,0.368-1.439,3.689-2.007,5.675c-1.155,4.027-2.246,7.831-4.478,8.824C402.83,198.989,402.461,199.062,402.079,199.062z"/>
		<path style="fill:#241726;" d="M396.841,239.644c-1.57,0-3.919-1.399-7.491-4.384c-3.06-2.56-5.823-5.316-5.938-5.431    c-0.469-0.469-0.469-1.23,0-1.699c0.469-0.469,1.23-0.469,1.699,0c5.076,5.076,10.392,9.235,11.718,9.099    c0.368-0.455,0.962-2.969,1.441-4.987c1.009-4.269,2.053-8.681,4.837-9.61c2.624-0.875,5.602,2.687,9.054,6.808    c1.765,2.107,4.708,5.618,5.724,5.618c0.009,0,0.019,0,0.028,0c1.237-0.469,2.6-6.085,3.333-9.103    c0.955-3.943,1.594-6.412,2.619-7.437c1.673-1.666,4.757,0.505,10.521,4.809c2.502,1.87,6.672,4.985,7.817,4.985    c0.014,0,0.028,0,0.04,0c0.589-0.479,1.387-4.644,1.863-7.132c1.011-5.276,1.68-8.277,3.642-8.604    c1.467-0.239,3.936,1.075,9.214,4.152c2.635,1.537,6.609,3.856,7.611,3.856c0.009,0,0.016,0,0.023,0    c0.835-0.709,1.948-7.095,2.424-9.819c0.563-3.225,0.774-4.314,1.152-4.879c1.007-1.514,3.161-0.333,7.883,2.26    c2.255,1.237,5.975,3.405,6.951,3.227c0.751-0.702,1.495-6.703,1.812-9.263c0.411-3.314,0.577-4.436,0.979-5.036    c0.995-1.502,2.772-0.385,6.313,1.852c2.356,1.49,6.287,4.008,7.613,3.656c1.317-0.329,3.71-6.635,5.123-13.494    c0.131-0.652,0.784-1.084,1.418-0.934c0.65,0.134,1.07,0.767,0.934,1.417c-0.887,4.318-3.34,14.457-6.893,15.344    c-2.124,0.528-5.278-1.305-9.479-3.957c-1.035-0.652-2.356-1.488-3.173-1.896c-0.136,0.81-0.305,2.18-0.451,3.344    c-0.843,6.801-1.521,10.957-3.814,11.34c-1.558,0.272-4.236-1.164-8.489-3.494c-1.645-0.901-3.793-2.079-4.879-2.483    c-0.176,0.786-0.425,2.206-0.634,3.41c-1.399,8.019-2.323,11.429-4.424,11.779c-1.483,0.237-3.945-1.08-9.214-4.152    c-2.635-1.537-6.609-3.856-7.611-3.856c-0.009,0-0.016,0-0.023,0c-0.462,0.488-1.206,4.367-1.65,6.684    c-0.913,4.766-1.551,7.74-3.063,8.749c-1.814,1.202-4.832-0.927-10.458-5.128c-2.518-1.88-6.264-4.677-7.51-4.874    c-0.582,0.887-1.314,3.9-1.856,6.142c-1.448,5.963-2.565,9.937-4.851,10.793c-2.363,0.88-5.029-2.295-8.411-6.329    c-1.746-2.086-5.386-6.435-6.451-6.071c-1.514,0.505-2.563,4.942-3.26,7.881c-0.76,3.222-1.279,5.248-2.279,6.247    C397.93,239.44,397.444,239.644,396.841,239.644z"/>
		<path style="fill:#241726;" d="M417.315,275.86c-2.732,0-9.484-4.166-14.902-7.836c-0.549-0.373-0.692-1.119-0.322-1.669    c0.373-0.549,1.119-0.695,1.669-0.322c5.203,3.523,11.584,7.266,13.253,7.451c0.493-0.737,1.178-3.424,1.643-5.241    c1.305-5.116,2.556-9.915,5.55-9.19c1.568,0.392,4.25,1.849,7.09,3.394c2.406,1.307,5.982,3.253,7.099,3.391    c0.549-0.58,1.633-2.823,2.436-4.492c2.455-5.088,5.229-10.875,8.763-9.451c2.488,0.995,6.182,4.222,9.148,6.815    c1.115,0.972,2.431,2.124,3.241,2.736c0.31-0.753,0.723-1.96,1.077-2.988c1.99-5.794,4.471-13.06,8.618-12.654    c2.783,0.232,5.506,2.42,7.907,4.351c1.833,1.474,3.9,3.159,4.919,2.889c0.993-0.34,2.307-5.337,2.936-7.738    c1.136-4.318,1.791-6.604,3.124-7.325c0.446-0.242,0.95-0.289,1.422-0.131c1.159,0.387,2.422,1.65,4.386,3.678    c1.244,1.286,4.145,4.328,4.985,4.069c1.429-0.953,4.337-7.491,5.945-11.83c0.23-0.62,0.92-0.941,1.544-0.709    c0.622,0.23,0.939,0.922,0.709,1.544c-0.692,1.866-4.274,11.267-6.869,12.997c-2.305,1.537-5.219-1.483-8.04-4.398    c-1.051-1.087-2.323-2.401-3.084-2.896c-0.563,0.918-1.293,3.703-1.795,5.611c-1.45,5.522-2.49,8.913-4.68,9.46    c-2.159,0.537-4.41-1.258-7.008-3.349c-2.131-1.716-4.548-3.659-6.602-3.83c-0.026-0.002-0.054-0.002-0.082-0.002    c-2.269,0-4.921,7.721-6.062,11.042c-1.314,3.83-1.711,4.987-2.966,4.987c-0.875,0-1.767-0.702-5.205-3.706    c-2.68-2.342-6.351-5.55-8.458-6.395c-1.394-0.505-4.426,5.621-5.705,8.266c-1.856,3.846-2.732,5.557-4.027,5.815    c-1.41,0.284-3.762-0.897-8.822-3.647c-2.584-1.403-5.255-2.856-6.524-3.173c-0.843,0.406-2.058,5.165-2.64,7.451    c-1.096,4.292-1.68,6.379-3.032,6.916C417.775,275.827,417.561,275.86,417.315,275.86z"/>
	</g>
	<path style="fill:#241726;" d="M269.113,236.614c-40.429,0-75.402-2.783-76.003-2.833c-0.659-0.054-1.152-0.634-1.098-1.295   c0.052-0.659,0.596-1.143,1.295-1.098c1.03,0.08,103.825,8.259,160.67-3.584c0.638-0.143,1.284,0.279,1.42,0.932   c0.136,0.648-0.282,1.286-0.932,1.42C330.465,235.157,298.36,236.614,269.113,236.614z"/>
	<g>
		<path style="fill:#43918F;" d="M159.977,493.519c0,0,1.089-9.31,2.842-22.556c0.362-2.739,3.814-3.551,4.229-6.58    c0.432-3.147-2.171-8.519-1.69-11.874c4.609-32.178,11.27-71.449,16.248-70.738c4.913,0.702,29.913,29.69,49.859,53.681    c1.519,1.828,1.441,8.983,2.89,10.738c1.422,1.721,4.373-1.957,5.707-0.333c10.015,12.191,17.244,21.227,17.244,21.227    L159.977,493.519z"/>
		<path style="fill:#E23962;" d="M171.247,415.61c-0.955,5.236-1.892,10.774-2.792,16.395c2.939,1.498,11.663,5.614,14.208,3.069    c3.076-3.076,7.69-11.151,7.69-11.151s6.921,5.768,13.073,5.383c5.538-0.346,10.466-11.377,11.396-13.578    c-3.365-3.919-6.685-7.733-9.857-11.307c-0.598,1.73-3.655,10.352-5.384,11.044c-1.923,0.769-9.997-6.537-11.535-7.306    c-1.538-0.769-3.461,11.92-6.152,13.073C179.616,422.207,173.178,417.182,171.247,415.61z"/>
		<path style="fill:#F8DC94;" d="M179.971,475.831c3.461-3.076,11.535-15.38,11.535-15.38s14.996,8.459,18.456,8.075    c3.461-0.385,10.382-16.534,10.382-16.534s10.382,8.075,13.842,6.537c2.805-1.246,5.104-9.563,5.875-12.672    c-2.693-3.278-5.589-6.785-8.598-10.404c-0.629,2.829-1.838,7.974-2.66,9.618c-1.154,2.307-6.152-6.537-12.304-8.075    c-6.152-1.538-4.23,13.073-9.613,15.38c-5.383,2.307-14.227-4.999-17.303-4.614s-7.306,12.689-9.997,12.689    c-2.249,0-11.307-5.974-14.229-7.941c-0.943,6.585-1.799,12.866-2.539,18.453C166.073,472.748,177.035,478.442,179.971,475.831z"/>
		<path style="fill:#241726;" d="M163.388,404.245c-1.023,0-1.906-0.446-2.565-1.298c-0.953-1.232-1.218-2.807-0.791-4.68    c0.784-3.44,3.91-7.58,7.064-10.892c-3.776,1.359-7.953,2.422-10.706,2.077c-3.06-0.383-4.06-2.197-4.358-3.652    c-0.34-1.65,0.042-3.164,1.103-4.377c2.267-2.589,7.404-3.478,11.744-3.741c-4.87-2-10.636-4.968-11.483-8.085    c-0.214-0.791-0.246-1.981,0.824-3.164c3.788-4.184,12.19,0.845,17.015,4.337c-2.154-5.94-5.215-15.872-2.854-18.899    c0.662-0.843,1.664-1.209,2.842-1.047c4.349,0.622,6.832,7.263,8.179,13.041c0.718-3.605,1.943-7.245,4.03-8.524    c1.091-0.669,2.33-0.713,3.588-0.136c1.18,0.544,2.025,1.502,2.509,2.847c1.042,2.889,0.204,7.254-0.981,11.084    c1.596-1.53,3.469-2.866,5.494-3.424c2-0.554,3.91-0.305,5.686,0.725c1.931,1.122,2.276,2.528,2.227,3.509    c-0.176,3.504-6.121,7.364-10.563,9.77c6.332,0.361,15.987,1.751,16.771,6.848c0.162,1.051-0.169,1.969-0.932,2.589    c-3.748,3.044-19.674-2.574-24.468-4.375c-0.622-0.232-0.936-0.925-0.702-1.547c0.232-0.622,0.927-0.946,1.547-0.702    c9.2,3.45,20.27,6.264,22.107,4.757c0.054-0.042,0.113-0.092,0.073-0.357c-0.547-3.555-11.605-4.985-19.258-4.928    c-0.528,0.075-1.065-0.383-1.188-0.941c-0.122-0.554,0.16-1.119,0.678-1.354c5.539-2.509,13.4-7.233,13.534-9.883    c0.009-0.188,0.035-0.688-1.033-1.307c-1.218-0.706-2.467-0.868-3.842-0.488c-4.94,1.366-9.211,8.993-9.254,9.071    c-0.314,0.568-1.028,0.789-1.603,0.486c-0.577-0.298-0.812-1.002-0.533-1.586c1.612-3.363,5.468-12.999,3.978-17.134    c-0.263-0.723-0.674-1.206-1.256-1.476c-0.671-0.312-1.044-0.171-1.324,0.002c-2.464,1.511-3.685,10.082-3.872,15.128    c-0.023,0.631-0.533,1.138-1.166,1.157c-0.627-0.047-1.169-0.455-1.232-1.084c-0.702-7.181-3.37-18.794-7.536-19.387    c-0.441-0.063-0.544,0.068-0.605,0.146c-1.483,1.899,1.307,12.157,4.743,20.575c0.209,0.512,0.04,1.101-0.408,1.427    c-0.444,0.324-1.056,0.3-1.483-0.059c-5.177-4.398-14.405-10.256-17.125-7.247c-0.364,0.401-0.354,0.678-0.289,0.92    c0.742,2.732,10.045,6.782,16.411,8.787c0.58,0.183,0.932,0.77,0.819,1.368c-0.113,0.598-0.662,1.033-1.265,0.976    c-3.72-0.265-13.971-0.251-16.738,2.91c-0.57,0.652-0.746,1.387-0.559,2.309c0.15,0.725,0.514,1.178,1.18,1.467    c3.807,1.647,14.133-2.941,17.536-4.712c0.284-0.19,0.533-0.338,0.744-0.444c0.305-0.15,1.019-0.505,1.633,0.106    c0.366,0.361,0.462,0.918,0.237,1.38c-0.068,0.136-0.291,0.333-0.645,0.575l0.005,0.014c-0.038,0.019-0.077,0.04-0.117,0.061    c-0.148,0.096-0.312,0.199-0.495,0.307c-2.955,1.992-10.915,9.592-12.086,14.731c-0.263,1.155-0.15,2.03,0.35,2.675    c0.249,0.322,0.465,0.373,0.737,0.364c3.074-0.188,9.998-9.575,13.933-16.184c0.34-0.575,1.082-0.756,1.647-0.418    c0.57,0.34,0.758,1.077,0.418,1.647c-1.692,2.84-10.404,17.022-15.853,17.353C163.534,404.245,163.461,404.245,163.388,404.245z"/>
	</g>
	<g>
		<path style="fill:#E23962;" d="M259.869,439.757c0,0,7.565-6.057,18.407-14.467c2.192-1.701,5.588,1.218,8.013-0.645    c2.345-1.801,3.714-8.379,6.211-10.275c5.464-4.149,11.216-8.459,16.92-12.639c1.994-1.462,4.975-0.125,6.943-1.543    c2.599-1.872,4.17-6.477,6.665-8.222c15.814-11.061,28.874-18.994,30.754-16.521c1.729,2.276,1.606,15.913,0.681,33.009    c-0.13,2.395-4.368,5.917-4.526,8.425c-0.15,2.381,3.782,3.744,3.611,6.19c-0.606,8.676-1.326,17.642-2.051,26.068    c-0.205,2.387-3.208,5.249-3.412,7.531c-0.182,2.044,2.435,3.52,2.258,5.451c-1.44,15.711-2.646,27.22-2.646,27.22    L259.869,439.757z"/>
		<path style="fill:#F8DC94;" d="M354.461,408.454c-0.74,0.334-9.736,4.365-11.565,3.595c-1.908-0.804-2.52-11.676-3.074-13.304    c-0.554-1.628-10.838,6.049-13.563,4.979c-2.478-0.973-3.132-10.108-3.231-11.757c-4.385,3.067-8.979,6.371-13.608,9.764    c1.015,3.33,4.106,12.405,7.659,12.382c4.35-0.027,13.307-2.53,13.307-2.53s0.872,8.967,5.519,13.016    c4.283,3.732,15.851-0.796,17.641-1.53C353.896,418.046,354.208,413.122,354.461,408.454z"/>
		<path style="fill:#EE919B;" d="M351.495,449.137c-1.905,1.113-6.677,3.853-8.611,4.511c-2.442,0.831,0.216-8.974-3.081-14.391    c-3.297-5.417-12.196,6.33-17.647,4.189c-5.451-2.141-6.61-13.553-9.069-15.441s-14.114,3.895-16.029,2.003    c-1.646-1.626-3.944-12.588-4.558-15.638c-5.081,3.858-9.909,7.573-14.223,10.92c1.062,3.949,4.589,15.301,8.248,15.932    c4.563,0.787,19.015-2.838,19.015-2.838s4.726,16.556,7.458,18.714s19.005-4.469,19.005-4.469s1.713,13.04,5.256,14.377    c2.871,1.084,10.351-3.218,13.084-4.888C350.716,458.033,351.106,453.661,351.495,449.137z"/>
		<path style="fill:#241726;" d="M370.122,397.892c-0.092,0-0.185-0.005-0.279-0.014c-4.809-0.486-12.133-15.703-14.264-20.357    c-0.275-0.603-0.009-1.317,0.594-1.594c0.594-0.27,1.312-0.012,1.594,0.594c4.091,8.937,9.965,18.728,12.319,18.965    c0.066,0,0.143,0.019,0.303-0.204c2.119-2.905-4.675-11.734-10.178-17.076c-0.406-0.394-0.481-1.023-0.178-1.504    c0.303-0.483,0.911-0.685,1.436-0.483c5.696,2.131,14.6,4.328,16.564,2.542c0.138-0.127,0.509-0.462,0.188-1.657    c-0.364-1.359-1.141-2.359-2.377-3.056c-4.466-2.511-12.875-0.117-12.957-0.094c-0.631,0.185-1.279-0.169-1.479-0.786    c-0.199-0.617,0.129-1.284,0.742-1.5c3.513-1.251,13.041-5.363,14.9-9.345c0.326-0.697,0.375-1.331,0.153-1.934    c-0.253-0.683-0.617-0.854-0.939-0.929c-2.79-0.674-9.721,4.553-13.415,7.996c-0.462,0.432-1.178,0.432-1.64,0    c-0.462-0.432-0.509-1.148-0.108-1.638c4.562-5.585,10.859-15.7,8.324-19.063c-0.268-0.354-0.432-0.347-0.533-0.322    c-2.389,0.3-7.646,9.542-11.143,17.93c-0.216,0.512-0.753,0.807-1.295,0.725c-0.547-0.087-0.965-0.535-1.011-1.087    c-0.566-6.703-2.936-17.216-6.914-17.216c-0.04,0-0.08,0-0.12,0.002c-0.542,0.028-0.73,0.235-0.854,0.451    c-1.399,2.457,2.342,11.887,5.442,17.798c0.284,0.54,0.117,1.206-0.385,1.549c-0.502,0.347-1.18,0.258-1.584-0.199    c-2.45-2.809-9.718-10.082-13.922-9.737c-0.864,0.059-1.507,0.455-2.023,1.241c-0.406,0.622-0.467,1.199-0.197,1.873    c1.54,3.854,12.089,7.883,15.754,9.024c0.333,0.066,0.617,0.136,0.84,0.211c0.324,0.106,1.08,0.357,1.087,1.225    c0.002,0.516-0.322,0.976-0.807,1.145c-0.143,0.049-0.441,0.031-0.864-0.047l-0.007,0.014c-0.038-0.014-0.08-0.026-0.124-0.04    c-0.174-0.035-0.364-0.077-0.57-0.131c-3.509-0.669-14.504-0.896-18.955,1.922c-1.002,0.631-1.537,1.333-1.638,2.143    c-0.052,0.406,0.07,0.603,0.268,0.777c2.309,2.032,13.839,0.263,21.288-1.647c0.634-0.167,1.298,0.225,1.462,0.866    c0.164,0.643-0.223,1.298-0.866,1.462c-3.201,0.821-19.383,4.729-23.473,1.122c-0.84-0.739-1.206-1.734-1.063-2.88    c0.192-1.544,1.115-2.847,2.739-3.875c2.983-1.887,8.118-2.617,12.687-2.741c-3.638-1.697-7.35-3.896-9.054-6.076    c-1.899-2.429-1.328-4.419-0.514-5.661c0.922-1.41,2.26-2.213,3.868-2.326c3.398-0.221,7.705,2.753,10.967,5.628    c-2.044-4.851-4.039-11.021-2.443-13.828c0.406-0.711,1.223-1.579,2.816-1.662c5.729-0.256,8.047,9.19,9.005,15.069    c2.661-5.731,7.493-14.928,11.305-15.409c1.04-0.138,2.039,0.312,2.753,1.26c2.645,3.509-0.277,9.969-3.398,15.015    c3.049-2.049,6.47-3.764,8.871-3.203c1.244,0.296,2.157,1.136,2.638,2.434c0.453,1.22,0.378,2.495-0.228,3.788    c-1.3,2.781-4.971,5.287-8.512,7.167c2.208,0.042,4.478,0.415,6.308,1.446c1.802,1.016,2.988,2.539,3.52,4.525    c0.577,2.157-0.169,3.398-0.896,4.06c-2.598,2.361-9.533,0.904-14.377-0.523c4.236,4.722,10.098,12.516,7.062,16.684    C371.765,397.474,370.988,397.892,370.122,397.892z"/>
	</g>
</g>















</svg>
